<svg width="1240" height="663" viewBox="0 0 1240 663" fill="none" xmlns="http://www.w3.org/2000/svg">
<g clip-path="url(#clip0_1_172)">
<g clip-path="url(#clip1_1_172)">
<path d="M620 520C724.106 520 808.5 435.606 808.5 331.5C808.5 227.394 724.106 143 620 143C515.894 143 431.5 227.394 431.5 331.5C431.5 435.606 515.894 520 620 520Z" stroke="url(#paint0_linear_1_172)"/>
<path d="M620 624C781.543 624 912.5 493.043 912.5 331.5C912.5 169.957 781.543 39 620 39C458.457 39 327.5 169.957 327.5 331.5C327.5 493.043 458.457 624 620 624Z" stroke="url(#paint1_linear_1_172)"/>
<path d="M620 718C833.458 718 1006.5 544.958 1006.5 331.5C1006.5 118.042 833.458 -55 620 -55C406.542 -55 233.5 118.042 233.5 331.5C233.5 544.958 406.542 718 620 718Z" stroke="url(#paint2_linear_1_172)"/>
<path d="M590.669 280.033C588.416 273.428 583.347 269.537 576.589 269.537C567.68 269.537 561.741 276.398 561.741 286.74C561.741 297.031 567.731 303.943 576.64 303.943C583.501 303.943 588.775 299.898 590.72 293.447H595.635C593.536 302.868 586.215 308.756 576.691 308.756C564.967 308.756 557.082 299.898 557.082 286.74C557.082 273.53 564.915 264.724 576.691 264.724C586.266 264.724 593.229 270.612 595.635 280.033H590.669ZM599.508 293.089C599.508 284.231 606.01 277.422 614.458 277.422C622.855 277.422 629.358 284.231 629.358 293.089C629.358 301.998 622.855 308.807 614.458 308.807C606.01 308.807 599.508 301.998 599.508 293.089ZM614.458 282.03C608.622 282.03 604.116 286.791 604.116 293.089C604.116 299.386 608.622 304.199 614.458 304.199C620.295 304.199 624.75 299.386 624.75 293.089C624.75 286.791 620.295 282.03 614.458 282.03ZM650.985 277.422V282.03C643.049 281.927 638.492 286.228 638.492 293.601V308.5H633.884V277.78H638.492V284.641C641.052 278.753 646.684 277.422 650.985 277.422ZM677.356 299.079H682.271C680.172 304.814 674.796 308.756 668.703 308.756C659.948 308.756 653.804 302.254 653.804 293.038C653.804 284.129 660.204 277.37 668.601 277.37C676.895 277.37 683.398 284.078 683.398 292.73C683.398 293.396 683.346 294.062 683.244 294.727H658.514C659.18 300.564 663.174 304.404 668.652 304.404C672.697 304.404 675.871 302.202 677.356 299.079ZM658.514 291.297H678.687C678.073 285.767 673.926 281.722 668.601 281.722C663.276 281.722 659.231 285.665 658.514 291.297ZM490.731 385.5L508.651 341.98H513.617L531.537 385.5H526.571L521.656 373.57H500.561L495.697 385.5H490.731ZM502.404 369.116H519.812L511.108 347.97L502.404 369.116ZM538.905 348.278H542.386V354.78H550.169V359.132H542.386V375.106C542.386 379.254 543.974 380.943 547.762 380.943H550.169V385.5H547.353C540.594 385.5 537.778 382.582 537.778 375.362V359.132H532.761V354.78H537.778L538.905 348.278ZM558.905 348.278H562.386V354.78H570.169V359.132H562.386V375.106C562.386 379.254 563.974 380.943 567.762 380.943H570.169V385.5H567.353C560.594 385.5 557.778 382.582 557.778 375.362V359.132H552.761V354.78H557.778L558.905 348.278ZM591.953 354.422V359.03C584.017 358.927 579.461 363.228 579.461 370.601V385.5H574.853V354.78H579.461V361.641C582.021 355.753 587.653 354.422 591.953 354.422ZM595.824 345.359C595.824 343.67 596.95 342.543 598.691 342.543C600.432 342.543 601.507 343.67 601.507 345.359C601.507 347.1 600.432 348.226 598.691 348.226C596.95 348.226 595.824 347.1 595.824 345.359ZM600.995 385.5H596.387V354.78H600.995V385.5ZM611.473 385.5H606.865V341.929H611.473V361.231C612.906 357.135 617.617 354.422 622.429 354.422C631.236 354.422 637.124 360.617 637.124 370.089C637.124 379.51 631.236 385.807 622.429 385.807C617.514 385.807 612.906 383.094 611.473 379.049V385.5ZM632.516 370.089C632.516 363.433 628.164 359.03 621.969 359.03C615.876 359.03 611.473 363.535 611.473 370.14C611.473 376.796 615.773 381.199 621.969 381.199C628.113 381.199 632.516 376.745 632.516 370.089ZM646.318 370.191C646.318 376.95 649.8 381.25 655.176 381.25C660.04 381.25 663.624 376.591 663.624 370.14V354.78H668.232V385.5H663.624V379.049C662.395 382.991 658.811 385.858 654.408 385.858C646.625 385.858 641.71 379.663 641.71 370.191V354.78H646.318V370.191ZM678.467 348.278H681.949V354.78H689.731V359.132H681.949V375.106C681.949 379.254 683.536 380.943 687.325 380.943H689.731V385.5H686.915C680.157 385.5 677.341 382.582 677.341 375.362V359.132H672.323V354.78H677.341L678.467 348.278ZM716.575 376.079H721.49C719.391 381.814 714.015 385.756 707.922 385.756C699.167 385.756 693.023 379.254 693.023 370.038C693.023 361.129 699.423 354.37 707.82 354.37C716.114 354.37 722.616 361.078 722.616 369.73C722.616 370.396 722.565 371.062 722.463 371.727H697.733C698.399 377.564 702.392 381.404 707.871 381.404C711.916 381.404 715.09 379.202 716.575 376.079ZM697.733 368.297H717.906C717.292 362.767 713.144 358.722 707.82 358.722C702.495 358.722 698.45 362.665 697.733 368.297ZM725.874 375.977H730.278C730.482 379.202 733.759 381.762 737.65 381.814C741.337 381.865 744.05 380.124 744.05 377.308C744.05 374.082 741.644 372.7 736.319 371.318C731.302 369.935 726.95 367.938 726.95 362.665C726.95 357.647 731.609 354.422 737.548 354.422C743.334 354.422 747.43 357.852 748.095 363.177H743.897C743.436 360.361 740.876 358.415 737.548 358.364C734.169 358.364 731.609 360.105 731.558 362.614C731.558 366.044 735.858 367.017 737.855 367.529C742.566 368.758 748.658 370.089 748.658 377.257C748.658 382.274 743.897 385.807 737.548 385.807C731.762 385.807 726.079 381.967 725.874 375.977Z" fill="white"/>
</g>
</g>
<defs>
<linearGradient id="paint0_linear_1_172" x1="620" y1="142.5" x2="620" y2="520.5" gradientUnits="userSpaceOnUse">
<stop/>
<stop offset="0.144607" stop-color="#747474"/>
<stop offset="0.494" stop-color="white"/>
<stop offset="0.8609" stop-color="#6A6A6A"/>
<stop offset="1"/>
</linearGradient>
<linearGradient id="paint1_linear_1_172" x1="620" y1="38.5" x2="620" y2="624.5" gradientUnits="userSpaceOnUse">
<stop/>
<stop offset="0.160656" stop-color="#747474"/>
<stop offset="0.494" stop-color="white"/>
<stop offset="0.854" stop-color="#777777"/>
<stop offset="1"/>
</linearGradient>
<linearGradient id="paint2_linear_1_172" x1="620" y1="-55.5" x2="620" y2="718.5" gradientUnits="userSpaceOnUse">
<stop/>
<stop offset="0.160656" stop-color="#747474"/>
<stop offset="0.494" stop-color="white"/>
<stop offset="0.854" stop-color="#777777"/>
<stop offset="1"/>
</linearGradient>
<clipPath id="clip0_1_172">
<rect width="1240" height="662" fill="white" transform="translate(0 0.5)"/>
</clipPath>
<clipPath id="clip1_1_172">
<rect width="774" height="774" fill="white" transform="translate(233 -55.5)"/>
</clipPath>
</defs>
</svg>
