<svg width="146" height="33" viewBox="0 0 146 33" fill="none" xmlns="http://www.w3.org/2000/svg">
<path d="M18.9716 21.0538V27.2369C18.9716 27.5621 19.2366 27.8256 19.5636 27.8256H25.7808C26.1079 27.8256 26.3729 27.5621 26.3729 27.2369V21.0538C26.3729 20.7285 26.1079 20.465 25.7808 20.465H19.5636C19.2366 20.465 18.9716 20.7285 18.9716 21.0538ZM23.542 26.4078L22.8631 25.2812C22.7748 25.1345 22.561 25.1331 22.4704 25.2782L21.7667 26.4115C21.7083 26.5051 21.6054 26.5625 21.4944 26.5625H20.4629C20.3607 26.5625 20.3001 26.4493 20.3564 26.365L21.7615 24.2626C21.8345 24.1537 21.8353 24.0121 21.763 23.9025L20.4651 21.9264C20.4097 21.8415 20.471 21.7297 20.5725 21.7297H21.6419C21.7543 21.7297 21.858 21.7878 21.9156 21.8836L22.4784 22.8114C22.566 22.9566 22.777 22.9595 22.869 22.8164L23.4741 21.8763C23.5332 21.7848 23.6347 21.7297 23.7435 21.7297H24.7742C24.8771 21.7297 24.9377 21.8444 24.8801 21.9293L23.5676 23.8292C23.4916 23.9388 23.4902 24.0826 23.5632 24.1936L24.9925 26.3664C25.0479 26.4514 24.9873 26.5632 24.8851 26.5632H23.8172C23.7048 26.5632 23.5997 26.5037 23.542 26.4078Z" fill="white"/>
<path d="M25.6281 32.3905H5.53032C2.4812 32.3905 0 29.9236 0 26.8904V6.1088C0 3.07569 2.48047 0.608841 5.53032 0.608841H25.6289C28.678 0.608841 31.1592 3.07569 31.1592 6.1088V26.8912C31.1592 29.9236 28.6787 32.3912 25.6289 32.3912L25.6281 32.3905ZM5.53032 2.85427C3.72581 2.85427 2.25783 4.3142 2.25783 6.1088V26.8912C2.25783 28.6858 3.72581 30.1457 5.53032 30.1457H25.6289C27.4333 30.1457 28.9013 28.6858 28.9013 26.8912V6.1088C28.9013 4.3142 27.4333 2.85427 25.6289 2.85427H5.53032Z" fill="white"/>
<path d="M11.6982 27.8255H5.4277C4.91891 27.8255 4.61305 27.2629 4.89263 26.8396L12.9801 14.5808L18.9302 5.56286C19.0483 5.38354 19.2499 5.27538 19.4652 5.27538H25.7314C26.2401 5.27538 26.546 5.838 26.2664 6.26124L12.2325 27.538C12.1143 27.7174 11.9135 27.8255 11.6982 27.8255Z" fill="white"/>
<path d="M49.571 25.4602C48.1738 25.4602 46.9371 25.1578 45.8524 24.5489C44.7677 23.9442 43.9699 23.0712 43.4591 21.9385L45.9621 20.678C46.2491 21.3253 46.705 21.8193 47.3213 22.1599C47.9375 22.5006 48.6888 22.6709 49.571 22.6709C50.1492 22.6709 50.6599 22.59 51.1116 22.4282C51.559 22.2664 51.9178 22.0237 52.1837 21.7C52.4496 21.3763 52.5805 20.9889 52.5805 20.5332C52.5805 20.0009 52.4369 19.5963 52.1456 19.3195C51.8587 19.0427 51.4661 18.8383 50.9807 18.702C50.4911 18.5658 49.9424 18.4466 49.3346 18.3486C48.7268 18.2379 48.0937 18.0846 47.4479 17.9015C46.802 17.7184 46.1943 17.4458 45.6329 17.0881C45.0715 16.7347 44.6199 16.2662 44.2738 15.6913C43.9277 15.1165 43.7546 14.384 43.7546 13.494C43.7546 12.5571 44.0079 11.7225 44.5101 10.9943C45.0167 10.2661 45.6962 9.68696 46.5573 9.25686C47.4141 8.82675 48.3723 8.61383 49.4316 8.61383C50.7317 8.61383 51.9009 8.90767 52.9434 9.49959C53.9859 10.0915 54.7542 10.9517 55.2523 12.0844L52.7746 13.3449C52.4876 12.7445 52.0486 12.2719 51.4619 11.9269C50.8752 11.5777 50.1577 11.4031 49.3093 11.4031C48.8281 11.4031 48.3892 11.4841 47.9966 11.6459C47.604 11.8076 47.296 12.0376 47.068 12.3357C46.8442 12.6338 46.7303 12.9787 46.7303 13.3663C46.7303 13.8858 46.8823 14.2861 47.1862 14.5671C47.4901 14.8524 47.8953 15.0696 48.4018 15.223C48.9083 15.3762 49.4738 15.5082 50.0986 15.6232C50.7064 15.7382 51.331 15.8872 51.9642 16.0703C52.5973 16.2578 53.1882 16.526 53.7328 16.8837C54.2772 17.2414 54.7204 17.7055 55.0581 18.2805C55.3958 18.8554 55.5645 19.5963 55.5645 20.5034C55.5645 21.4573 55.2945 22.3089 54.7583 23.0542C54.2223 23.7994 53.5048 24.3871 52.6058 24.8129C51.7067 25.243 50.698 25.456 49.5751 25.456L49.571 25.4602Z" fill="white"/>
<path d="M66.517 15.6999H56.9905V13.2257H66.517V15.6999ZM64.0857 25.4816C63.0263 25.4816 62.14 25.2771 61.4267 24.8726C60.7132 24.468 60.173 23.9017 59.8016 23.1735C59.4301 22.4453 59.2487 21.6022 59.2487 20.6482V10.1427H62.161V20.5545C62.161 21.2827 62.3552 21.8491 62.752 22.2537C63.1445 22.6582 63.6763 22.8584 64.3516 22.8584C64.702 22.8584 65.0819 22.803 65.4829 22.688C65.8838 22.573 66.23 22.4112 66.517 22.2025V24.847C66.2131 25.0429 65.8332 25.1962 65.3857 25.307C64.9384 25.4219 64.5036 25.4773 64.0857 25.4773V25.4816Z" fill="white"/>
<path d="M74.5997 25.4602C73.4601 25.4602 72.4472 25.175 71.5566 24.6086C70.666 24.0422 69.9695 23.28 69.463 22.3261C68.9565 21.3721 68.7032 20.3203 68.7032 19.1705C68.7032 18.0208 68.9861 16.969 69.5474 16.015C70.1088 15.0612 70.8643 14.2989 71.8225 13.7326C72.7763 13.1661 73.8569 12.8852 75.0599 12.8852C76.2628 12.8852 77.3644 13.1619 78.3184 13.7112C79.2722 14.2605 80.032 15.0101 80.5934 15.9554C81.1547 16.9009 81.4376 17.9739 81.4376 19.1705V25.1664H78.694V20.7717L79.6099 20.3118C79.6099 21.2827 79.4031 22.1558 78.9852 22.935C78.5674 23.7143 77.9849 24.3275 77.242 24.7789C76.495 25.2303 75.617 25.4602 74.6082 25.4602H74.5997ZM75.0556 22.7178C75.731 22.7178 76.3261 22.556 76.8495 22.2323C77.3687 21.9088 77.7781 21.4786 78.0777 20.9463C78.3732 20.414 78.521 19.8306 78.521 19.2004C78.521 18.5361 78.3732 17.9398 78.0777 17.4033C77.7823 16.871 77.3728 16.4452 76.8495 16.13C76.3261 15.8149 75.731 15.6574 75.0556 15.6574C74.3803 15.6574 73.8063 15.8149 73.2871 16.13C72.7637 16.4452 72.3543 16.871 72.0461 17.4033C71.738 17.9356 71.5903 18.5361 71.5903 19.2004C71.5903 19.8647 71.7423 20.414 72.0461 20.9463C72.35 21.4786 72.7637 21.9088 73.2871 22.2323C73.8063 22.556 74.3972 22.7178 75.0556 22.7178Z" fill="white"/>
<path d="M90.0064 25.4816C88.8035 25.4816 87.7187 25.2048 86.7564 24.6554C85.794 24.1061 85.0343 23.3566 84.4687 22.4113C83.903 21.4659 83.6245 20.4013 83.6245 19.2175V7.71544H86.5369V16.9861L85.0934 17.4459C85.0934 16.6369 85.3255 15.8831 85.7898 15.189C86.2541 14.4948 86.8746 13.9371 87.6427 13.524C88.411 13.1109 89.2466 12.9065 90.1457 12.9065C91.3655 12.9065 92.4377 13.1748 93.3705 13.707C94.299 14.2394 95.0292 14.9846 95.5611 15.9384C96.0929 16.8924 96.3546 17.9868 96.3546 19.2175C96.3546 20.3502 96.0761 21.3893 95.523 22.3346C94.9701 23.2801 94.2146 24.0422 93.2607 24.6172C92.3068 25.1921 91.2178 25.4774 90.0023 25.4774L90.0064 25.4816ZM90.0064 22.7136C90.6818 22.7136 91.2727 22.5561 91.7876 22.241C92.3026 21.9258 92.7078 21.5 93.0159 20.9677C93.3198 20.4353 93.4718 19.8435 93.4718 19.1961C93.4718 18.5489 93.3198 17.957 93.0159 17.4247C92.712 16.8924 92.3026 16.4623 91.7876 16.1386C91.2727 15.815 90.6818 15.6532 90.0064 15.6532C89.3311 15.6532 88.7571 15.815 88.2379 16.1386C87.7145 16.4623 87.3051 16.8924 86.9969 17.4247C86.693 17.957 86.5412 18.5489 86.5412 19.1961C86.5412 19.8435 86.693 20.4353 86.9969 20.9677C87.3009 21.5 87.7145 21.9258 88.2379 22.241C88.7571 22.5561 89.3479 22.7136 90.0064 22.7136Z" fill="white"/>
<path d="M98.5409 7.71544H101.453V25.1665H98.5409V7.71544Z" fill="white"/>
<path d="M109.997 25.4605C108.794 25.4605 107.708 25.188 106.746 24.6472C105.783 24.1064 105.025 23.3568 104.471 22.403C103.918 21.4491 103.64 20.3462 103.64 19.1027C103.64 17.9529 103.893 16.9053 104.4 15.96C104.906 15.0146 105.615 14.2566 106.526 13.6902C107.438 13.1238 108.498 12.8386 109.701 12.8386C110.903 12.8386 111.967 13.1111 112.841 13.6519C113.715 14.1927 114.391 14.9166 114.863 15.8237C115.336 16.7307 115.572 17.7315 115.572 18.8344V19.8309H105.902L106.408 18.9068C106.362 19.6818 106.485 20.3717 106.78 20.9679C107.076 21.5684 107.498 22.0368 108.042 22.3774C108.586 22.7181 109.228 22.8884 109.967 22.8884C110.706 22.8884 111.305 22.7352 111.866 22.4286C112.428 22.1219 112.862 21.662 113.166 21.0446L115.404 22.2114C114.875 23.2632 114.145 24.0681 113.213 24.6259C112.284 25.1837 111.207 25.4648 109.988 25.4648L109.997 25.4605ZM106.556 18.1062H112.689C112.642 17.5739 112.487 17.1013 112.22 16.6967C111.955 16.2921 111.609 15.977 111.174 15.7513C110.74 15.5257 110.245 15.4107 109.684 15.4107C109.123 15.4107 108.599 15.5298 108.156 15.7641C107.713 15.9983 107.363 16.3219 107.096 16.735C106.83 17.1481 106.654 17.6037 106.556 18.1062Z" fill="white"/>
<path d="M124.423 25.4816C123.427 25.4816 122.523 25.2644 121.704 24.8258C120.885 24.3872 120.185 23.7867 119.598 23.016C119.011 22.2494 118.56 21.3509 118.239 20.3203C117.918 19.2941 117.757 18.1869 117.757 17.0072C117.757 15.8277 117.918 14.6779 118.239 13.6559C118.56 12.6382 119.011 11.7439 119.598 10.9731C120.185 10.2066 120.885 9.61038 121.704 9.1888C122.523 8.76721 123.427 8.55855 124.423 8.55855C125.419 8.55855 126.322 8.76721 127.14 9.1888C127.96 9.61038 128.665 10.2023 129.26 10.9731C129.855 11.7396 130.31 12.6339 130.631 13.6559C130.952 14.6736 131.112 15.7936 131.112 17.0072C131.112 18.2209 130.952 19.2941 130.631 20.3203C130.31 21.3466 129.855 22.2452 129.26 23.016C128.665 23.7867 127.96 24.3872 127.14 24.8258C126.322 25.2644 125.419 25.4816 124.423 25.4816ZM124.423 22.424C124.937 22.424 125.41 22.2835 125.84 21.9981C126.275 21.7128 126.655 21.3211 126.984 20.8228C127.314 20.3203 127.571 19.7455 127.753 19.0982C127.939 18.4508 128.031 17.7568 128.031 17.0115C128.031 16.2663 127.939 15.5168 127.753 14.8653C127.567 14.2095 127.314 13.6431 126.993 13.1661C126.672 12.6892 126.292 12.3145 125.849 12.0505C125.406 11.7822 124.929 11.6501 124.418 11.6501C123.907 11.6501 123.455 11.7822 123.021 12.0505C122.586 12.3187 122.202 12.6892 121.864 13.1661C121.527 13.6431 121.265 14.2095 121.084 14.8653C120.898 15.5211 120.806 16.2365 120.806 17.0115C120.806 17.9995 120.965 18.9022 121.286 19.7198C121.607 20.5375 122.042 21.1934 122.586 21.6873C123.131 22.1813 123.742 22.4283 124.414 22.4283L124.423 22.424Z" fill="white"/>
<path d="M135.754 25.1663H132.504L135.392 20.6268C135.746 20.0775 135.919 19.6006 135.919 19.196C135.919 18.8256 135.759 18.3869 135.438 17.8844L132.479 13.2257H135.776L137.966 16.6964C138.206 17.0838 138.388 17.4969 138.506 17.9355C138.625 18.3742 138.688 18.8085 138.688 19.2471C138.688 19.6517 138.628 20.069 138.506 20.4991C138.384 20.9292 138.206 21.338 137.966 21.7255L135.754 25.1706V25.1663ZM141.001 20.4565H137.295V17.8333H141.001V20.4565ZM145.572 25.1663H142.322L140.11 21.7212C139.87 21.3338 139.688 20.9249 139.57 20.4948C139.452 20.0647 139.388 19.6474 139.388 19.2428C139.388 18.8042 139.448 18.3699 139.57 17.9313C139.692 17.4926 139.87 17.0795 140.11 16.6921L142.301 13.2215H145.598L142.639 17.8801C142.318 18.3826 142.157 18.8213 142.157 19.1918C142.157 19.5963 142.335 20.0732 142.685 20.6226L145.572 25.1621V25.1663Z" fill="white"/>
</svg>
