<svg width="40" height="41" viewBox="0 0 40 41" fill="none" xmlns="http://www.w3.org/2000/svg">
<path d="M13.3333 23.5H7.66667C6.74619 23.5 6 24.2462 6 25.1667V30.8333C6 31.7538 6.74619 32.5 7.66667 32.5H13.3333C14.2538 32.5 15 31.7538 15 30.8333V25.1667C15 24.2462 14.2538 23.5 13.3333 23.5Z" stroke="white" stroke-width="2"/>
<path d="M33.3333 23.5H26.6667C25.7462 23.5 25 24.2462 25 25.1667V30.8333C25 31.7538 25.7462 32.5 26.6667 32.5H33.3333C34.2538 32.5 35 31.7538 35 30.8333V25.1667C35 24.2462 34.2538 23.5 33.3333 23.5Z" stroke="white" stroke-width="2"/>
<path d="M23.3333 7.5H16.6667C15.7462 7.5 15 8.24619 15 9.16667V14.8333C15 15.7538 15.7462 16.5 16.6667 16.5H23.3333C24.2538 16.5 25 15.7538 25 14.8333V9.16667C25 8.24619 24.2538 7.5 23.3333 7.5Z" stroke="white" stroke-width="2"/>
<path d="M16 16.5L11 23.5" stroke="white" stroke-width="2" stroke-linecap="round" stroke-linejoin="round"/>
<path d="M24 16.5L29 23.5" stroke="white" stroke-width="2" stroke-linecap="round" stroke-linejoin="round"/>
</svg>
