<svg width="98" height="31" viewBox="0 0 98 31" fill="none" xmlns="http://www.w3.org/2000/svg">
<path d="M90.9385 25.6896C89.5199 25.6896 88.2981 25.3865 87.2733 24.7803C86.2546 24.1678 85.4672 23.3086 84.911 22.2025C84.3611 21.09 84.0861 19.787 84.0861 18.2935C84.0861 16.8186 84.3611 15.5188 84.911 14.3938C85.4672 13.2689 86.2421 12.3909 87.2357 11.7597C88.2356 11.1286 89.4043 10.813 90.7417 10.813C91.5541 10.813 92.3414 10.9473 93.1039 11.2161C93.8663 11.4847 94.5506 11.9066 95.1568 12.4816C95.763 13.0565 96.241 13.8033 96.5911 14.7219C96.941 15.6343 97.116 16.7436 97.116 18.0497V19.0434H85.6703V16.9435H94.3694C94.3694 16.2062 94.2194 15.5531 93.9194 14.9844C93.6195 14.4095 93.1976 13.9564 92.654 13.6252C92.1165 13.294 91.4853 13.1284 90.7604 13.1284C89.973 13.1284 89.2855 13.3221 88.6981 13.7095C88.1169 14.0907 87.6669 14.5907 87.3482 15.2094C87.0358 15.8218 86.8796 16.4874 86.8796 17.2061V18.8465C86.8796 19.8089 87.0482 20.6275 87.3857 21.3026C87.7294 21.9775 88.2075 22.493 88.82 22.8493C89.4324 23.1992 90.1479 23.3742 90.9666 23.3742C91.4978 23.3742 91.9821 23.2992 92.4196 23.1492C92.8571 22.993 93.2351 22.7618 93.5539 22.4555C93.8726 22.1493 94.1163 21.7712 94.285 21.3213L96.9378 21.7994C96.7254 22.5805 96.3442 23.2648 95.7942 23.8522C95.2506 24.4334 94.5662 24.8865 93.7414 25.2115C92.9227 25.5302 91.9883 25.6896 90.9385 25.6896Z" fill="#B7B7B7"/>
<path d="M80.9621 6.20093V25.399H78.1593V6.20093H80.9621Z" fill="#B7B7B7"/>
<path d="M67.3206 25.7177C66.4082 25.7177 65.5833 25.5489 64.8458 25.2115C64.1084 24.8678 63.5241 24.3709 63.0929 23.721C62.6679 23.0711 62.4555 22.2743 62.4555 21.3307C62.4555 20.5183 62.6117 19.8496 62.9242 19.3246C63.2366 18.7996 63.6585 18.384 64.1897 18.0779C64.7209 17.7716 65.3145 17.5404 65.9707 17.3841C66.6269 17.2279 67.2956 17.1091 67.9768 17.028C68.8392 16.928 69.5391 16.8467 70.0765 16.7843C70.6141 16.7155 71.0046 16.6061 71.2484 16.4561C71.4921 16.3061 71.614 16.0624 71.614 15.725V15.6593C71.614 14.8407 71.3827 14.2064 70.9202 13.7565C70.4641 13.3064 69.7828 13.0814 68.8767 13.0814C67.933 13.0814 67.1894 13.2908 66.6456 13.7095C66.1082 14.122 65.7364 14.5813 65.5301 15.0875L62.896 14.4876C63.2085 13.6126 63.6648 12.9065 64.2646 12.369C64.8709 11.8254 65.5677 11.4317 66.3551 11.188C67.1425 10.9379 67.9705 10.813 68.8392 10.813C69.4141 10.813 70.0235 10.8817 70.6671 11.0192C71.3171 11.1504 71.9233 11.3942 72.4858 11.7503C73.0544 12.1066 73.52 12.6159 73.8824 13.2783C74.2449 13.9345 74.4262 14.7875 74.4262 15.8374V25.399H71.6889V23.4304H71.5764C71.3952 23.7928 71.1234 24.1491 70.7609 24.499C70.3985 24.8491 69.9328 25.1396 69.3641 25.3708C68.7954 25.6021 68.1143 25.7177 67.3206 25.7177ZM67.9299 23.468C68.7048 23.468 69.3673 23.3148 69.9173 23.0085C70.4734 22.7024 70.8953 22.3024 71.1828 21.8087C71.4765 21.3088 71.6233 20.7744 71.6233 20.2057V18.3497C71.5233 18.4497 71.3296 18.5434 71.0421 18.6309C70.7609 18.7122 70.439 18.7841 70.0765 18.8465C69.7141 18.9027 69.361 18.9559 69.0174 19.0059C68.6736 19.0496 68.3861 19.0872 68.155 19.1183C67.6112 19.1871 67.1144 19.3028 66.6645 19.4652C66.2207 19.6276 65.8645 19.8621 65.5958 20.1682C65.3333 20.4683 65.2021 20.8682 65.2021 21.3681C65.2021 22.0618 65.4583 22.5867 65.9707 22.943C66.4832 23.2929 67.1362 23.468 67.9299 23.468Z" fill="#B7B7B7"/>
<path d="M53.1283 25.399V11.0005H55.8374V13.2878H55.9874C56.2498 12.5128 56.7123 11.9035 57.3747 11.4598C58.0434 11.0098 58.7996 10.7849 59.6432 10.7849C59.8182 10.7849 60.0245 10.7911 60.262 10.8036C60.5057 10.8161 60.6962 10.8317 60.8337 10.8504V13.5315C60.7213 13.5002 60.5212 13.4659 60.2338 13.4283C59.9463 13.3846 59.6588 13.3627 59.3714 13.3627C58.7089 13.3627 58.1183 13.5034 57.5997 13.7846C57.0873 14.0595 56.681 14.4439 56.3811 14.9375C56.0811 15.4251 55.9311 15.9812 55.9311 16.6061V25.399H53.1283Z" fill="#B7B7B7"/>
<path d="M36.0815 25.399V6.20093H43.1121C44.4744 6.20093 45.6025 6.4259 46.496 6.87586C47.3897 7.31956 48.0584 7.92263 48.5022 8.68505C48.9458 9.44122 49.1677 10.2943 49.1677 11.2442C49.1677 12.0441 49.0208 12.719 48.7271 13.2689C48.4334 13.8127 48.0397 14.2501 47.5459 14.5813C47.0585 14.9063 46.5211 15.1438 45.9337 15.2938V15.4813C46.5711 15.5124 47.1929 15.7187 47.799 16.0999C48.4115 16.4749 48.9177 17.0092 49.3176 17.7029C49.7177 18.3966 49.9176 19.2402 49.9176 20.2339C49.9176 21.215 49.6864 22.0962 49.2239 22.8774C48.7678 23.6523 48.0616 24.2678 47.1054 24.724C46.1493 25.1739 44.9274 25.399 43.4401 25.399H36.0815ZM38.9781 22.9149H43.1589C44.5462 22.9149 45.5399 22.6461 46.1399 22.1087C46.7399 21.5712 47.0398 20.8995 47.0398 20.0933C47.0398 19.4871 46.8867 18.9309 46.5805 18.4247C46.2742 17.9185 45.8368 17.5154 45.2681 17.2155C44.7056 16.9154 44.0369 16.7654 43.262 16.7654H38.9781V22.9149ZM38.9781 14.5063H42.859C43.5089 14.5063 44.0932 14.3814 44.6119 14.1313C45.1368 13.8814 45.5525 13.5314 45.8586 13.0814C46.1712 12.6253 46.3274 12.0878 46.3274 11.4691C46.3274 10.6755 46.0493 10.0099 45.4931 9.47246C44.9369 8.93502 44.0839 8.6663 42.934 8.6663H38.9781V14.5063Z" fill="#B7B7B7"/>
<path fill-rule="evenodd" clip-rule="evenodd" d="M1.63565 29.0287V2.63135H28.3629V29.0287H1.63565ZM8.31747 14.5101V9.2307H10.9902V14.5101H8.31747ZM13.6629 19.7897H16.3356V14.5101H10.9902V17.1499H8.31747V22.4293H13.6629V19.7897ZM13.6629 19.7897H10.9902V17.1499H13.6629V19.7897ZM13.8968 9.81143C14.0171 9.64646 14.2242 9.46167 14.3979 9.37588C14.6318 9.25709 14.7854 9.22409 15.0794 9.24389C15.3668 9.25709 15.5204 9.30989 15.7476 9.46167C15.9147 9.58046 16.1018 9.78504 16.1886 9.95662C16.3089 10.1876 16.3423 10.3394 16.3222 10.6297C16.3089 10.9135 16.2554 11.0653 16.1018 11.2831C15.9882 11.4349 15.7677 11.6329 15.6006 11.7253C15.3601 11.8507 15.2198 11.877 14.9191 11.8572C14.6318 11.844 14.4781 11.7913 14.2576 11.6394C14.1039 11.5273 13.9034 11.3095 13.8099 11.1445C13.683 10.9069 13.6562 10.7683 13.6762 10.4714C13.6896 10.1876 13.7431 10.0358 13.8968 9.81143ZM19.7433 9.37588C19.5763 9.46167 19.3558 9.64645 19.2556 9.79163C19.1353 9.96322 19.0484 10.1744 19.0284 10.3856C19.0083 10.5836 19.0284 10.8212 19.0819 10.9796C19.1286 11.1247 19.2489 11.3293 19.3424 11.4349C19.436 11.5404 19.6298 11.6857 19.7768 11.7451C19.9238 11.8111 20.1777 11.8705 20.3447 11.8705C20.5118 11.8705 20.7657 11.8111 20.9127 11.7451C21.0597 11.6857 21.2534 11.5404 21.347 11.4349C21.4405 11.3293 21.5608 11.1247 21.6076 10.9796C21.6611 10.8212 21.6811 10.5836 21.6611 10.3856C21.641 10.1744 21.5608 9.96322 21.4339 9.79824C21.3336 9.65305 21.1132 9.46827 20.9461 9.38248C20.759 9.28349 20.5318 9.2307 20.3447 9.2307C20.1643 9.2307 19.9238 9.29009 19.7433 9.37588ZM19.2423 15.0975C19.3558 14.9457 19.5763 14.7477 19.7433 14.662C19.9839 14.5299 20.1243 14.5036 20.4249 14.5234C20.7123 14.5366 20.8659 14.5893 21.0931 14.7412C21.2602 14.86 21.4473 15.0645 21.5341 15.2361C21.6543 15.4671 21.6878 15.6188 21.6677 15.9093C21.6543 16.193 21.6009 16.3448 21.4473 16.5626C21.3403 16.7143 21.1132 16.9123 20.9461 17.0047C20.7055 17.1301 20.5653 17.1565 20.2645 17.1367C19.9773 17.1235 19.8235 17.0707 19.6031 16.919C19.4493 16.8067 19.2489 16.5889 19.1553 16.424C19.0284 16.1864 19.0017 16.0478 19.0217 15.7509C19.0351 15.4671 19.0885 15.3153 19.2423 15.0975Z" fill="#B7B7B7"/>
</svg>
