<svg width="293" height="395" viewBox="0 0 293 395" fill="none" xmlns="http://www.w3.org/2000/svg">
<path d="M178.477 240.213V298.208C178.477 301.258 180.962 303.731 184.03 303.731H242.345C245.413 303.731 247.897 301.258 247.897 298.208V240.213C247.897 237.162 245.413 234.69 242.345 234.69H184.03C180.962 234.69 178.477 237.162 178.477 240.213ZM221.346 290.432L214.978 279.864C214.149 278.488 212.143 278.475 211.294 279.836L204.694 290.466C204.146 291.344 203.18 291.882 202.139 291.882H192.465C191.506 291.882 190.938 290.82 191.465 290.03L204.645 270.31C205.33 269.289 205.337 267.961 204.659 266.932L192.486 248.398C191.965 247.601 192.54 246.552 193.492 246.552H203.522C204.577 246.552 205.549 247.097 206.09 247.996L211.369 256.698C212.191 258.06 214.17 258.087 215.032 256.746L220.708 247.928C221.263 247.07 222.215 246.552 223.235 246.552H232.903C233.868 246.552 234.436 247.628 233.896 248.425L221.585 266.245C220.872 267.273 220.859 268.621 221.544 269.664L234.95 290.043C235.47 290.84 234.902 291.889 233.944 291.889H223.926C222.872 291.889 221.893 291.337 221.352 290.439L221.346 290.432Z" fill="#1C1C1C"/>
<path d="M240.913 346.547H52.4026C23.8029 346.547 0.530029 323.408 0.530029 294.959V100.034C0.530029 71.585 23.796 48.4468 52.4026 48.4468H240.92C269.52 48.4468 292.793 71.585 292.793 100.034V294.966C292.793 323.408 269.527 346.554 240.92 346.554L240.913 346.547ZM52.4026 69.5081C35.4769 69.5081 21.7077 83.2018 21.7077 100.034V294.966C21.7077 311.799 35.4769 325.492 52.4026 325.492H240.92C257.845 325.492 271.615 311.799 271.615 294.966V100.034C271.615 83.2018 257.845 69.5081 240.92 69.5081H52.4026Z" fill="#1C1C1C"/>
<path d="M110.251 303.728H51.436C46.6637 303.728 43.7948 298.451 46.4172 294.481L122.274 179.498L178.084 94.9123C179.193 93.2304 181.083 92.2158 183.102 92.2158H241.877C246.649 92.2158 249.518 97.493 246.895 101.463L115.263 301.032C114.154 302.713 112.265 303.728 110.244 303.728H110.251Z" fill="#1C1C1C"/>
</svg>
